<svg xmlns="http://www.w3.org/2000/svg" version="1.1" xmlns:xlink="http://www.w3.org/1999/xlink" xmlns:svgjs="http://svgjs.com/svgjs" width="1920" height="1080" preserveAspectRatio="none" viewBox="0 0 1920 1080"><g mask="url(&quot;#SvgjsMask1049&quot;)" fill="none"><rect width="1920" height="1080" x="0" y="0" fill="rgba(240, 241, 243, 1)"></rect><path d="M1593.8467558256905 915.4647118711832L1429.010184663616 786.6802680996027 1300.2257408920354 951.5168392616772 1465.06231205411 1080.3012830332577z" fill="rgba(255, 255, 255, 1)" class="triangle-float1"></path><path d="M1588.1404296203468 1041.4608042585655L1781.0786621212828 1166.75635746278 1906.374215325497 973.818124961844 1713.4359828245613 848.5225717576295z" fill="rgba(255, 255, 255, 1)" class="triangle-float3"></path><path d="M234.06056269063248-4.904866927099441L49.34918716320422 37.73911422123251 91.99316831153618 222.45048974866077 276.7045438389644 179.8065086003288z" fill="rgba(255, 255, 255, 1)" class="triangle-float3"></path><path d="M1997.7426694908497 706.9043169289747L2013.703237152792 402.35854375771635 1709.1574639815337 386.39797609577397 1693.1968963195914 690.9437492670323z" fill="rgba(255, 255, 255, 1)" class="triangle-float3"></path><path d="M409.4453885732278-118.42992880696748L357.65622442430794 89.28506332527833 565.3712165565537 141.07422747419815 617.1603807054736-66.64076465804763z" fill="rgba(255, 255, 255, 1)" class="triangle-float3"></path><path d="M1020.1422334456026-25.294378735428865L834.4657393715569 188.3019940109124 1048.062112117898 373.97848808495814 1233.738606191944 160.3821153386169z" fill="rgba(255, 255, 255, 1)" class="triangle-float1"></path><path d="M1316.1693533038745 475.5118687623343L1207.3874924464744 287.09615881542913 1018.9717824995691 395.8780196728293 1127.7536433569692 584.2937296197344z" fill="rgba(255, 255, 255, 1)" class="triangle-float1"></path><path d="M578.3008593847499 628.6681735283552L525.8985576583829 789.9458748616851 687.1762589917129 842.3481765880521 739.5785607180799 681.0704752547222z" fill="rgba(255, 255, 255, 1)" class="triangle-float1"></path><path d="M85.79616445899853 269.2180533420199L-33.6749683262518 433.6559605258493 130.76293885757764 553.1270933110997 250.23407164282796 388.68918612727026z" fill="rgba(255, 255, 255, 1)" class="triangle-float1"></path><path d="M1333.1912144618273 455.6994670032856L1129.895415289037 221.83440231416037 896.0303505999116 425.1302014869508 1099.3261497727021 658.995266176076z" fill="rgba(255, 255, 255, 1)" class="triangle-float3"></path></g><defs><mask id="SvgjsMask1049"><rect width="1920" height="1080" fill="#ffffff"></rect></mask><style>
            @keyframes float1 {
                0%{transform: translate(0, 0)}
                50%{transform: translate(-10px, 0)}
                100%{transform: translate(0, 0)}
            }

            .triangle-float1 {
                animation: float1 5s infinite;
            }

            @keyframes float2 {
                0%{transform: translate(0, 0)}
                50%{transform: translate(-5px, -5px)}
                100%{transform: translate(0, 0)}
            }

            .triangle-float2 {
                animation: float2 4s infinite;
            }

            @keyframes float3 {
                0%{transform: translate(0, 0)}
                50%{transform: translate(0, -10px)}
                100%{transform: translate(0, 0)}
            }

            .triangle-float3 {
                animation: float3 6s infinite;
            }
        </style></defs></svg>